<svg width="14" height="14" viewBox="0 0 14 14" fill="none" xmlns="http://www.w3.org/2000/svg">
<path d="M11.2458 6V3C11.2458 2.72386 11.4697 2.5 11.7458 2.5C12.022 2.5 12.2458 2.72386 12.2458 3V6C12.2458 6.27614 12.022 6.5 11.7458 6.5C11.4697 6.5 11.2458 6.27614 11.2458 6Z" fill="black"/>
<path d="M13.2458 4C13.522 4 13.7458 4.22386 13.7458 4.5C13.7458 4.77614 13.522 5 13.2458 5H10.2458C9.96971 5 9.74585 4.77614 9.74585 4.5C9.74585 4.22386 9.96971 4 10.2458 4H13.2458Z" fill="black"/>
<path d="M8.24585 2.5V0.5C8.24585 0.223858 8.46971 0 8.74585 0C9.02199 0 9.24585 0.223858 9.24585 0.5V2.5C9.24585 2.77614 9.02199 3 8.74585 3C8.46971 3 8.24585 2.77614 8.24585 2.5Z" fill="black"/>
<path d="M9.74585 1C10.022 1 10.2458 1.22386 10.2458 1.5C10.2458 1.77614 10.022 2 9.74585 2H7.74585C7.46971 2 7.24585 1.77614 7.24585 1.5C7.24585 1.22386 7.46971 1 7.74585 1H9.74585Z" fill="black"/>
<path d="M4.57431 0.974823C4.74822 0.926432 4.93507 0.974983 5.06259 1.10275C5.19004 1.23049 5.2382 1.41728 5.18954 1.59103C4.93823 2.48725 4.93042 3.43473 5.16611 4.33517C5.4018 5.23541 5.87238 6.05701 6.53036 6.71506C7.18853 7.37322 8.01078 7.8446 8.91122 8.08029C9.81153 8.31587 10.7583 8.30714 11.6544 8.05588C11.8282 8.00713 12.0149 8.05627 12.1427 8.18381C12.2703 8.31121 12.3197 8.49737 12.2716 8.67111L12.1485 9.06174C11.8339 9.95999 11.3182 10.7769 10.6378 11.4475C9.86018 12.2139 8.8949 12.7627 7.83896 13.0403C6.78292 13.3178 5.67226 13.3136 4.61825 13.0285C3.5643 12.7434 2.60324 12.1872 1.83115 11.4153C1.05905 10.6432 0.502078 9.68215 0.216888 8.62814C-0.0682691 7.57412 -0.0723062 6.46351 0.205169 5.40744C0.482694 4.35132 1.03239 3.38634 1.79892 2.60861C2.56545 1.83089 3.52232 1.26763 4.57431 0.974823ZM4.04501 2.23361C3.47547 2.49734 2.95464 2.86047 2.51083 3.31076C1.86712 3.96396 1.40605 4.77439 1.17294 5.66135C0.939838 6.54843 0.943214 7.48105 1.18271 8.36642C1.42225 9.25186 1.88957 10.0596 2.53818 10.7082C3.18673 11.3567 3.9937 11.8242 4.879 12.0637C5.76433 12.3032 6.69702 12.3065 7.58407 12.0735C8.47122 11.8403 9.28235 11.3785 9.93564 10.7346C10.386 10.2907 10.7471 9.76911 11.0108 9.19943C10.2264 9.29725 9.42757 9.2487 8.65732 9.04709C7.58531 8.76642 6.60691 8.20566 5.82333 7.42209C5.03975 6.63844 4.47894 5.66019 4.19833 4.5881C3.99663 3.81748 3.947 3.01846 4.04501 2.23361Z" fill="black"/>
</svg>
