<svg width="15" height="15" viewBox="0 0 15 15" fill="none" xmlns="http://www.w3.org/2000/svg">
<path d="M10.75 7.5C10.75 5.70507 9.29493 4.25 7.5 4.25C5.70507 4.25 4.25 5.70507 4.25 7.5C4.25 9.29493 5.70507 10.75 7.5 10.75C9.29493 10.75 10.75 9.29493 10.75 7.5ZM11.75 7.5C11.75 9.84721 9.84721 11.75 7.5 11.75C5.15279 11.75 3.25 9.84721 3.25 7.5C3.25 5.15279 5.15279 3.25 7.5 3.25C9.84721 3.25 11.75 5.15279 11.75 7.5Z" fill="black"/>
<path d="M7 1.75V0.5C7 0.223858 7.22386 0 7.5 0C7.77614 0 8 0.223858 8 0.5V1.75C8 2.02614 7.77614 2.25 7.5 2.25C7.22386 2.25 7 2.02614 7 1.75Z" fill="black"/>
<path d="M2.1965 2.1965C2.39176 2.00123 2.70826 2.00123 2.90353 2.1965L3.78439 3.07735C3.97965 3.27262 3.97965 3.58912 3.78439 3.78439C3.58912 3.97965 3.27262 3.97965 3.07735 3.78439L2.1965 2.90353C2.00123 2.70826 2.00123 2.39176 2.1965 2.1965Z" fill="black"/>
<path d="M1.75 7C2.02614 7 2.25 7.22386 2.25 7.5C2.25 7.77614 2.02614 8 1.75 8H0.5C0.223858 8 0 7.77614 0 7.5C0 7.22386 0.223858 7 0.5 7H1.75Z" fill="black"/>
<path d="M3.07726 11.2153C3.27245 11.0201 3.58901 11.0202 3.78429 11.2153C3.97955 11.4105 3.97955 11.727 3.78429 11.9223L2.90343 12.8031C2.70817 12.9984 2.39166 12.9984 2.1964 12.8031C2.00133 12.6079 2.0012 12.2913 2.1964 12.0961L3.07726 11.2153Z" fill="black"/>
<path d="M7 14.5V13.25C7 12.9739 7.22386 12.75 7.5 12.75C7.77614 12.75 8 12.9739 8 13.25V14.5C8 14.7761 7.77614 15 7.5 15C7.22386 15 7 14.7761 7 14.5Z" fill="black"/>
<path d="M11.2151 11.2152C11.4103 11.02 11.7268 11.02 11.9221 11.2152L12.8029 12.0961C12.9982 12.2914 12.9982 12.6079 12.8029 12.8031C12.6077 12.9984 12.2912 12.9984 12.0959 12.8031L11.2151 11.9223C11.0198 11.727 11.0198 11.4105 11.2151 11.2152Z" fill="black"/>
<path d="M14.5 7C14.7761 7 15 7.22386 15 7.5C15 7.77614 14.7761 8 14.5 8H13.25C12.9739 8 12.75 7.77614 12.75 7.5C12.75 7.22386 12.9739 7 13.25 7H14.5Z" fill="black"/>
<path d="M12.0961 2.19652C12.2913 2.00132 12.6078 2.00145 12.8031 2.19652C12.9983 2.39178 12.9983 2.70829 12.8031 2.90355L11.9222 3.78441C11.727 3.97967 11.4105 3.97967 11.2152 3.78441C11.0201 3.58913 11.02 3.27258 11.2152 3.07738L12.0961 2.19652Z" fill="black"/>
</svg>
